<svg width="21" height="38" viewBox="0 0 21 38" fill="none" xmlns="http://www.w3.org/2000/svg">
<path d="M19.6398 29.8887C18.3855 32.8201 13.3711 36.3761 10.6519 37.998C13.3711 35.4494 14.6547 32.4373 14.6547 29.4253C14.6547 24.7914 13.2955 21.3932 12.6913 20.6209C12.6913 20.6209 12.8725 22.7061 12.2381 24.328C11.6036 25.9499 10.1987 26.8766 10.1987 26.8766C11.0291 25.0231 10.3635 23.4012 10.1987 22.9378C9.45712 20.8526 7.17701 20.6209 5.59083 17.8405C3.47592 14.1334 5.10446 9.28715 6.11997 6.95085C7.02636 4.8656 7.70615 3.70712 10.4253 0C9.51892 3.70712 9.87821 7.14584 10.8026 9.03611C12.4647 12.4352 16.5646 11.8165 19.4132 16.9137C21.3555 20.3892 21.226 26.1815 19.6398 29.8887Z" fill="url(#paint0_linear)"/>
<path d="M0.150664 27.1083C0.875776 33.0397 6.57131 36.3761 9.06388 37.7662C7.93089 35.9127 6.89502 35.681 6.57131 33.364C6.31495 31.5291 9.74365 28.9618 9.06388 23.8645C8.78834 21.7984 6.15638 20.6902 4.98513 18.9989C3.39895 16.7085 3.54961 13.6699 3.54961 12.7432C2.26556 14.9829 -0.699077 20.1574 0.150664 27.1083Z" fill="url(#paint1_linear)"/>
<path d="M7.93052 34.5226C8.15277 35.7725 9.09868 36.8701 9.77847 37.4879C11.3646 37.4879 12.4625 35.2177 12.4625 33.3641C12.4625 31.7258 10.8763 28.4985 10.8763 28.4985C10.8763 30.5838 7.47732 31.974 7.93052 34.5226Z" fill="#F89832"/>
<defs>
<linearGradient id="paint0_linear" x1="11.7089" y1="11.8165" x2="12.7239" y2="37.7646" gradientUnits="userSpaceOnUse">
<stop stop-color="#424699"/>
<stop offset="1" stop-color="#5A96CE"/>
</linearGradient>
<linearGradient id="paint1_linear" x1="4.2294" y1="22.4744" x2="4.32235" y2="37.3028" gradientUnits="userSpaceOnUse">
<stop stop-color="#3F4397"/>
<stop offset="1" stop-color="#59B5E8"/>
</linearGradient>
</defs>
</svg>
