<svg width="18" height="30" viewBox="0 0 18 30" fill="none" xmlns="http://www.w3.org/2000/svg">
<path d="M16.9553 23.5976C15.8723 25.912 11.5429 28.7195 9.19524 30C11.5429 27.9878 12.6512 25.6098 12.6512 23.2317C12.6512 19.5732 11.4777 16.8902 10.956 16.2805C10.956 16.2805 11.1125 17.9268 10.5647 19.2073C10.0169 20.4878 8.80396 21.2195 8.80396 21.2195C9.52095 19.7561 8.94624 18.4756 8.80396 18.1098C8.16368 16.4634 6.19507 16.2805 4.82558 14.0854C2.99959 11.1585 4.40565 7.33234 5.28243 5.4878C6.065 3.84146 6.65191 2.92683 8.9996 0C8.21704 2.92683 8.52725 5.64175 9.32531 7.13415C10.7604 9.81774 14.3002 9.32927 16.7597 13.3537C18.4366 16.0976 18.3248 20.6707 16.9553 23.5976Z" fill="url(#paint0_linear)"/>
<path d="M0.130081 21.4023C0.756133 26.0852 5.67358 28.7193 7.82563 29.8169C6.84742 28.3535 5.95307 28.1705 5.67358 26.3413C5.45224 24.8926 8.41253 22.8657 7.82563 18.8413C7.58773 17.21 5.31533 16.3351 4.30409 14.9998C2.93461 13.1915 3.06468 10.7925 3.06468 10.0608C1.95605 11.8291 -0.603574 15.9145 0.130081 21.4023Z" fill="url(#paint1_linear)"/>
<path d="M6.84744 27.2561C7.03933 28.2429 7.85602 29.1095 8.44294 29.5973C9.81242 29.5973 10.7603 27.8049 10.7603 26.3415C10.7603 25.0479 9.39077 22.5 9.39077 22.5C9.39077 24.1463 6.45616 25.2439 6.84744 27.2561Z" fill="#F89832"/>
<defs>
<linearGradient id="paint0_linear" x1="9.5" y1="-1.11184e-08" x2="10.7656" y2="29.8247" gradientUnits="userSpaceOnUse">
<stop stop-color="#424699"/>
<stop offset="1" stop-color="#5A96CE"/>
</linearGradient>
<linearGradient id="paint1_linear" x1="3" y1="-0.000167183" x2="3.6393" y2="29.453" gradientUnits="userSpaceOnUse">
<stop stop-color="#3F4397"/>
<stop offset="1" stop-color="#59B5E8"/>
</linearGradient>
</defs>
</svg>
